# xmcd CD database file
#
# Track frame offsets:
#	150
#	15530
#	32675
#	49068
#	58760
#	71538
#	83708
#	103848
#	120213
#	136163
#	148253
#	161084
#
# Disc length: 2462 seconds
#
# Revision: 0
# Processed by: cddbd v1.4PL0 Copyright (c) Steve Scherf et al.
# Submitted via: CDex 1.40Beta5
#
DISCID=9f099c0c
DTITLE=Buddy Blue - Pretend It's Okay
DYEAR=2001
DGENRE=Blues
TTITLE0=When Merrill Pitched a Boogie
TTITLE1=Hurricane of Love
TTITLE2=Pretend It's Okay
TTITLE3=Papa Needs Poon-Tang
TTITLE4=Goldmine
TTITLE5=The Year of Jubilo
TTITLE6=My Sunday Feeling
TTITLE7=Guido Suit
TTITLE8=You Done Lost Your Good Thing Now
TTITLE9=Jesse's Back in Town
TTITLE10=57 Kids
TTITLE11=Please Warm My Weiner
EXTD=YEAR: 2001 ID3G:   0
EXTT0=
EXTT1=
EXTT2=
EXTT3=
EXTT4=
EXTT5=
EXTT6=
EXTT7=
EXTT8=
EXTT9=
EXTT10=
EXTT11=
PLAYORDER=
